<?xml version="1.0" encoding="UTF-8" standalone="no"?>
<!-- Created with Inkscape (http://www.inkscape.org/) -->

<svg
   version="1.1"
   id="svg1"
   width="828"
   height="1040"
   viewBox="0 0 828 1040"
   sodipodi:docname="Logo-Bidons.svg"
   inkscape:version="1.3.2 (091e20e, 2023-11-25, custom)"
   xmlns:inkscape="http://www.inkscape.org/namespaces/inkscape"
   xmlns:sodipodi="http://sodipodi.sourceforge.net/DTD/sodipodi-0.dtd"
   xmlns="http://www.w3.org/2000/svg"
   xmlns:svg="http://www.w3.org/2000/svg">
  <defs
     id="defs1" />
  <sodipodi:namedview
     id="namedview1"
     pagecolor="#ffffff"
     bordercolor="#111111"
     borderopacity="1"
     inkscape:showpageshadow="0"
     inkscape:pageopacity="0"
     inkscape:pagecheckerboard="1"
     inkscape:deskcolor="#d1d1d1"
     inkscape:zoom="1.0049075"
     inkscape:cx="176.13561"
     inkscape:cy="488.10462"
     inkscape:window-width="1898"
     inkscape:window-height="952"
     inkscape:window-x="-9"
     inkscape:window-y="0"
     inkscape:window-maximized="0"
     inkscape:current-layer="g1" />
  <g
     inkscape:groupmode="layer"
     inkscape:label="Image"
     id="g1">
    <path
       style="fill:#2a70be;stroke:none"
       d="m 358.78512,595.16604 c 10.5442,3.85437 20.7128,12.2049 30,18.45374 11.811,7.94689 24.1749,15.10333 36,23.02771 8.811,5.90466 20.8165,16.32531 32,15.45373 9.5785,-0.74646 20.5825,-8.64282 29,-13.01392 19.2304,-9.98608 38.6183,-19.72119 58,-29.41198 5.3821,-2.69104 24.147,-15.64783 29.4352,-11.02783 8.9693,7.83605 15.3702,25.01147 20.8102,35.51855 8.7973,16.99158 21.3811,36.62891 23.6157,56 1.1615,10.06873 -4.3532,22.38513 -7.1204,32 -5.3851,18.71088 -9.4425,37.53076 -15.8055,56 -4.0997,11.89966 -7.8321,24.4552 -12.8473,36 -3.0487,7.01801 -8.4606,11.65955 -7.9351,20 1.0188,16.17041 28.9403,22.47913 41.8472,25.41205 4.3585,0.99042 8.4185,3.03265 13,2.43518 11.8733,-1.54828 18.1926,-17.05158 11.3889,-26.82868 -3.6537,-5.25061 -9.8948,-5.99273 -15.3889,-8.2871 -3.825,-1.59729 -8.3539,-2.61939 -7.5,-7.73145 2.5784,-15.43475 10.7817,-31.18921 15.7129,-46 4.7641,-14.30878 7.3614,-29.52332 11.5278,-44 3.4773,-12.08191 9.1395,-25.17261 7.9815,-38 -2.3654,-26.2019 -16.4706,-53.21149 -28.8935,-76 -4.4307,-8.12756 -9.4013,-15.95947 -13.9861,-24 -1.567,-2.74811 -4.6459,-6.6571 -4.3935,-9.98145 0.5393,-7.10217 20.9473,-13.47406 26.5509,-16.47692 17.5117,-9.38416 35.2264,-18.41407 53,-27.30091 9.0265,-4.51324 18.8985,-8.3529 23.1481,-18.24072 6.458,-15.02606 3.5675,-39.70947 3.8565,-56 0.6192,-34.89362 1.7252,-71.25916 5.1297,-106 1.2043,-12.28937 0.7968,-24.72211 2,-37 0.8175,-8.34277 2.4026,-17.35083 -2.1343,-24.99536 -3.7252,-6.2768 -11.1668,-9.47901 -17,-13.35651 -14.4952,-9.63531 -29.4306,-18.60113 -44,-28.13421 -38.1495,-24.96204 -76.5281,-49.53888 -115,-74.01392 -17.4236,-11.08453 -35.0647,-26.3988 -54,-34.58795 -12.3357,-5.33496 -24.2976,3.64612 -35,9.01385 -26.446,13.26374 -52.6474,27.03467 -79,40.49536 -33.6954,17.21137 -67.2818,34.60248 -101,51.64356 -12.38191,6.25775 -32.57346,12.41998 -41.72223,22.95367 -12.15179,13.99128 -7.20483,40.60266 -8.33795,57.98151 -2.62688,40.28912 -4.44775,80.63531 -5.95834,121 -0.52327,13.98242 -5.04515,31.26239 -1.43055,45 3.17156,12.05377 14.65216,18.02856 24.44907,24.20837 19.72691,12.44342 38.9659,25.86084 59,37.78699 7.2611,4.32251 21.0958,10.30847 25.1111,18.02319 4.0185,7.72071 0.3848,24.45289 -0.1713,32.98145 -1.2671,19.43347 0.4248,41.05005 -4.2176,60 -1.6687,6.81152 -1.394,14.41992 -8.7222,18.11108 -7.5282,3.79194 -19.9654,0.0361 -28,-0.10644 -27.00374,-0.47925 -54.22354,-3.85498 -81,-7.26392 -10.84911,-1.38122 -26.71002,-5.91028 -35.86574,1.91205 -8.97553,7.6684 -7.20872,23.62653 -7.13426,34.34723 0.0555,7.9903 1.30982,19.97888 5.31019,27 5.45588,9.57568 19.76966,10.44934 27.36574,2.68054 6.56807,-6.71741 -1.67703,-27.90686 6.4074,-31.20373 9.30125,-3.79309 27.26167,1.57653 36.91667,3.11114 19.19016,3.05023 38.63516,3.70587 58,4.4306 16.6633,0.6236 34.3641,0.0684 46.9352,-13.0371 27.0968,-28.24866 11.4477,-76.83753 20.0648,-110.98145 m 119,-416 58,37.50464 130,84.49536 c -2.6317,5.79218 -9.5893,8.04559 -15,10.75928 -12.2961,6.16705 -24.4294,13.26581 -37,18.83331 -4.7337,2.09656 -10.5615,7.11029 -16.0046,6.20374 -5.7007,-0.94941 -11.2851,-6.49854 -15.9954,-9.62964 -10.5686,-7.02539 -21.3447,-13.78461 -32,-20.66205 -32.5938,-21.03754 -65.3849,-41.78534 -98,-62.8241 -13.3167,-8.59009 -32.6062,-16.81555 -42,-29.68054 l 68,-35 m 56,193 c -16.1948,3.81238 -34.2008,16.38098 -49,24.23151 -4.5426,2.40973 -12.8569,9.09851 -18,8.89813 -4.8609,-0.18939 -12.1421,-6.48993 -16,-9.27319 -9.9251,-7.16041 -20.6049,-13.83716 -31,-20.31019 -30.9342,-19.26263 -61.2738,-39.4989 -92,-59.04626 -16.6899,-10.6178 -33.1301,-24.04993 -51,-32.5 4.2042,-9.20416 25.9877,-16.20728 35,-20.44904 9.0497,-4.2594 22.844,-15.51818 33,-15.38891 4.1758,0.0532 8.6094,3.89984 12,6.05554 9.0314,5.74219 18.142,11.46112 27,17.48615 29.601,20.13385 60.2249,39.08129 90.412,58.37036 14.5741,9.31256 28.968,18.92761 43.588,28.16662 5.4384,3.43677 14.4086,7.15766 16,13.75928 m 150,-39 c 0,41.2713 -1.8432,83.95282 -5.8657,125 -1.1927,12.1698 3.2121,34.15674 -3.0232,44.84723 -2.4826,4.25641 -9.9906,6.22479 -14.1111,8.56482 -12.6772,7.1994 -26.1018,13.06293 -39,19.87036 -48.5181,25.60712 -97.4811,51.1676 -147,74.71759 -2.508,-13.29797 0.4793,-27.5816 0.9815,-41 0.9992,-26.6994 2.2209,-53.35461 3.9583,-80 0.9118,-13.98303 -2.948,-34.87335 2.6898,-47.84723 2.9534,-6.79645 18.1427,-10.62848 24.3704,-13.82403 9.9646,-5.1131 20.0853,-9.89972 30,-15.10187 3.348,-1.75666 8.6901,-5.93823 12.7824,-4.61572 4.914,1.58807 1.7232,16.59967 1.3519,20.38885 -1.6282,16.61511 -2.1021,34.31897 -2.1343,51 -0.01,3.35565 -1.8307,14.31427 1.4028,16.30554 3.1517,1.94092 7.2239,-4.15503 8.949,-6.04626 5.9545,-6.5279 15.9477,-21.66358 24.6667,-23.8241 7.8528,-1.94586 17.8626,7.89282 25.9815,8.56482 0,-24.21228 2.3646,-48.84265 3.9398,-73 0.5386,-8.25946 -2.2267,-20.41327 2.2778,-27.84723 3.3145,-5.47009 13.3269,-8.59503 18.7824,-11.51849 16.1744,-8.66748 32.3113,-17.05963 49,-24.63428 m -412,58 v 2 c 7.7308,2.54846 7.1092,12.0639 0.97685,16.38892 -6.06964,4.28082 -22.106,4.84863 -28.97685,2.61108 2.03761,-8.05212 2.925,-16.75629 4,-25 0.40924,-3.13831 0.20062,-8.93134 2.62962,-11.24536 3.18608,-3.03528 10.36626,-1.76233 14.37038,-1.75464 3.77472,0.007 7.74806,-0.0425 10.8009,2.56946 5.5377,4.73797 2.2289,12.53509 -3.8009,14.43054 m -13,-2 c 3.92508,-0.064 6.23845,-0.30408 8,-4 -4.44649,-1.43475 -7.14713,-0.88757 -8,4 m 37,2 -5,31 h -10 l 5,-31 h 10 m -38,6 -1,6 c 8.33348,-0.10748 10.57045,-5.96094 1,-6 m 42,41 c 2.098,-8.2027 1.1595,-26.07813 6.8287,-32.37036 5.5998,-6.21521 24.6064,0.11407 27.8009,6.375 12.2142,23.93829 -20.4773,25.99536 -34.6296,25.99536 m 15,-24 -2,15 c 12.5848,-0.16217 16.5391,-14.94086 2,-15 m 41,9.51855 c 25.982,-0.13031 19.4076,36.2129 -4,36.2129 -25.3428,0 -18.8618,-36.09827 4,-36.2129 m -2,10.24073 c -9.0842,1.10406 -9.5682,16.87469 0.9954,15.03705 8.5244,-1.48291 8.6967,-16.21503 -0.9954,-15.03705 m 45,29.24072 h 1 l 2,-17 h 11 l -6,34 c -12.9729,0 -12.8337,-5.21375 -18,-16 l -3,16 h -10 l 5,-34 c 13.0641,0 13.6453,5.63947 18,17 m 47,4 c -4.7271,6.98132 -8.5399,5.64062 -16,6 2.7365,5.82068 10.9094,5.04828 12.6574,12 4.1752,16.60388 -20.0707,16.25061 -28.6574,10 v -1 c 6.515,-6.40454 8.9868,-3.54321 17,-4 -2.5566,-5.57355 -10.0389,-5.70007 -11.6574,-12 -4.1282,-16.0686 17.6241,-16.25201 26.6574,-11 z"
       id="path1" />
  </g>
</svg>
